<svg xmlns="http://www.w3.org/2000/svg" viewBox="0 0 512 512" width="512" height="512"><defs><clipPath id="a"><circle cx="256" cy="256" r="240"/></clipPath></defs><circle cx="256" cy="256" r="256" fill="#0d0d14"/><g clip-path="url(#a)"><path stroke="#7c6fff" stroke-width=".8" opacity=".12" d="M16 256h480M256 16v480"/><rect x="85" y="85" width="342" height="342" rx="6" fill="none" stroke="#7c6fff" stroke-width="2" transform="rotate(45 256 256)"/><rect x="85" y="85" width="342" height="342" rx="5" fill="none" stroke="#7c6fff" stroke-width="1.6" opacity=".7"/><rect x="170.5" y="170.5" width="171" height="171" rx="4" fill="none" stroke="#9d8fff" stroke-width="1.3" opacity=".65" transform="rotate(45 256 256)"/><rect x="135" y="135" width="242" height="242" rx="3" fill="none" stroke="#9d8fff" opacity=".5"/><rect x="195.5" y="195.5" width="121" height="121" rx="2.5" fill="none" stroke="#c4bbff" stroke-width=".9" opacity=".45"/></g><circle cx="256" cy="256" r="240" fill="none" stroke="#7c6fff" stroke-width="2.5"/><path stroke="#7c6fff" stroke-width="3" stroke-linecap="round" d="M256 16v28m0 424v28M16 256h28m424 0h28"/><path stroke="#7c6fff" stroke-width="1.5" stroke-linecap="round" opacity=".5" d="m86 86 21 21m319-21-21 21M86 426l21-21m319 21-21-21"/><circle cx="256" cy="256" r="18" fill="none" stroke="#a89dff" opacity=".45"/><circle cx="256" cy="256" r="10" fill="#c4bbff"/></svg>